<svg width="120" height="100" viewBox="0 0 120 100" fill="none" xmlns="http://www.w3.org/2000/svg">
<g id="triangles">
<g id="lightGroup">
<path id="light1" opacity="0.7" d="M40 48.768C41.3333 49.5378 41.3333 51.4623 40 52.2321L13.75 67.3875C12.4167 68.1573 10.75 67.195 10.75 65.6554L10.75 35.3445C10.75 33.8049 12.4167 32.8427 13.75 33.6125L40 48.768Z" fill="#BE53FF"/>
</g>
<g id="darkGroup">
<path id="dark1" opacity="0.7" d="M54 48.768C55.3333 49.5378 55.3333 51.4623 54 52.2321L27.75 67.3875C26.4167 68.1573 24.75 67.195 24.75 65.6554L24.75 35.3445C24.75 33.8049 26.4167 32.8427 27.75 33.6125L54 48.768Z" fill="#9E00FF"/>
<path id="dark2" opacity="0.7" d="M40 48.768C41.3333 49.5378 41.3333 51.4623 40 52.2321L13.75 67.3875C12.4167 68.1573 10.75 67.195 10.75 65.6554L10.75 35.3445C10.75 33.8049 12.4167 32.8427 13.75 33.6125L40 48.768Z" fill="#9E00FF"/>
</g>
</g>
</svg>
